<?xml version='1.0' encoding='iso-8859-1'?>
<svg version="1.1" xmlns="http://www.w3.org/2000/svg" viewBox="0 0 441.065 441.065" xmlns:xlink="http://www.w3.org/1999/xlink" enable-background="new 0 0 441.065 441.065">
  <path fill="#fff" d="m109.452,128.856c-17.059-22.352-37.263-41.206-58.431-54.527-3.739-2.353-4.863-7.292-2.51-11.032s7.291-4.864 11.032-2.51c22.767,14.327 44.423,34.507 62.627,58.36 6.455,8.453 12.343,17.227 17.502,26.078 2.225,3.817 0.934,8.715-2.883,10.94-1.267,0.738-2.653,1.09-4.021,1.09-2.753,0-5.432-1.422-6.919-3.973-4.826-8.279-10.343-16.497-16.397-24.426zm221.995,68.302c1.315,1.697 1.894,3.851 1.605,5.978-5.078,37.397-29.042,56.748-49.9,56.748-0.75,0-1.495-0.025-2.236-0.075-10.445-0.706-19.721-6.215-26.116-15.513-6.634-9.645-9.998-22.738-9.998-38.915 0-3.74 2.592-6.981 6.24-7.804l34.454-7.771c0.883-0.199 1.792-0.248 2.693-0.141l37.869,4.451c2.132,0.249 4.074,1.346 5.389,3.042zm-15.769,11.846l-27.998-3.291-26.657,6.013c1.382,19.197 9.153,31.32 20.972,32.118 12.895,0.867 28.014-11.822 33.683-34.84zm121.686,37.361c-6.63,4.226-13.725,8.114-21.188,11.626-1.72,17.814-6.649,35.119-14.488,51.117 11.233,5.671 21.66,12.174 30.966,19.351 3.499,2.698 4.148,7.721 1.45,11.22-2.698,3.498-7.721,4.148-11.22,1.45-8.679-6.692-18.448-12.758-29.001-18.041-4.096,6.493-8.709,12.7-13.816,18.557-0.958,1.098-1.929,2.18-2.915,3.248 12.989,11.472 24.563,23.808 34.328,36.654 2.674,3.517 1.989,8.536-1.527,11.21-3.519,2.674-8.537,1.99-11.211-1.527-9.362-12.316-20.523-24.149-33.091-35.148-20.959,18.327-46.624,30.524-74.099,35.004-8.382,8.402-19.966,13.607-32.744,13.607-3.515,0-6.94-0.394-10.233-1.14-5.31,10.321-16.02,17.073-28.042,17.073s-22.731-6.752-28.041-17.073c-3.292,0.746-6.718,1.14-10.233,1.14-12.778,0-24.364-5.206-32.746-13.608-27.473-4.479-53.14-16.682-74.095-35.003-12.567,10.999-23.729,22.833-33.091,35.148-2.673,3.518-7.693,4.202-11.21,1.527-3.518-2.674-4.201-7.692-1.527-11.21 9.764-12.845 21.338-25.182 34.328-36.654-1.049-1.136-2.081-2.287-3.098-3.457-5.035-5.795-9.586-11.931-13.633-18.348-10.553,5.283-20.322,11.349-29.002,18.042-3.499,2.698-8.522,2.048-11.221-1.45-2.698-3.499-2.048-8.522 1.45-11.221 9.307-7.177 19.735-13.68 30.968-19.351-7.836-15.996-12.768-33.308-14.488-51.115-7.465-3.512-14.559-7.4-21.19-11.627-3.726-2.375-4.821-7.32-2.446-11.046 2.375-3.726 7.321-4.822 11.046-2.446 3.821,2.436 7.814,4.75 11.958,6.935 0.66-24.745 7.493-48.901 19.897-70.35-1.61-3.43-3.154-6.916-4.625-10.445-19.864-47.604-24.863-98.628-13.049-133.162 1.295-3.785 5.187-6.03 9.111-5.261 35.542,6.981 76.87,36.422 108.084,76.946 9.782-2 19.771-3.013 29.77-3.013h94.164c9.999,0 19.989,1.012 29.771,3.013 31.213-40.522 72.54-69.964 108.082-76.946 3.932-0.771 7.816,1.476 9.111,5.26 11.814,34.533 6.816,85.558-13.045,133.162-1.472,3.53-3.016,7.015-4.625,10.444 12.404,21.451 19.238,45.605 19.898,70.349 4.144-2.185 8.136-4.499 11.957-6.935 3.726-2.376 8.671-1.28 11.046,2.446 2.376,3.727 1.28,8.673-2.445,11.048zm-203.625,150.933c-5.216-3.375-9.713-7.769-13.207-12.899-3.493,5.13-7.99,9.524-13.206,12.899 2.774,4.467 7.711,7.327 13.206,7.327 5.494-0.001 10.432-2.86 13.207-7.327zm-13.207-81.581l18.523-23.983v-3.102h-37.045v3.101l18.522,23.984zm180.328-71.947c0-19.789-4.431-39.243-12.906-57.005-0.084,0.148-0.169,0.297-0.254,0.445-2.192,3.835-7.081,5.167-10.916,2.973-3.835-2.193-5.166-7.081-2.973-10.916 2.37-4.144 4.643-8.432 6.802-12.833 0.028-0.059 0.057-0.118 0.086-0.176 2.139-4.367 4.167-8.846 6.069-13.405 17.088-40.96 22.503-84.097 14.729-114.865-30.532,8.652-65.182,34.91-92.108,70.189-0.735,0.963-2.318,3.091-2.39,3.182-5.123,6.938-9.825,14.07-14.009,21.247-2.225,3.817-7.123,5.108-10.939,2.883-3.817-2.225-5.108-7.123-2.883-10.94 2.462-4.224 5.09-8.431 7.867-12.594-6.423-0.951-12.92-1.43-19.421-1.43h-94.164c-6.501,0-12.999,0.479-19.422,1.43 2.779,4.165 5.407,8.371 7.869,12.593 2.226,3.817 0.935,8.715-2.882,10.94-3.815,2.226-8.715,0.936-10.94-2.882-4.177-7.164-8.875-14.29-13.995-21.227-0.082-0.105-1.674-2.247-2.404-3.203-26.927-35.279-61.578-61.537-92.11-70.188-7.773,30.768-2.358,73.905 14.731,114.864 3.841,9.211 8.2,18.098 12.956,26.414 2.193,3.835 0.862,8.723-2.973,10.917-3.834,2.191-8.723,0.862-10.916-2.973-0.085-0.148-0.17-0.297-0.254-0.445-8.474,17.761-12.904,37.214-12.904,57.005 0,1.176 0.016,2.35 0.047,3.52 11.69,4.83 24.227,8.708 37.227,11.482 8.563,1.829 17.154,3.123 25.539,3.847 4.402,0.38 7.662,4.257 7.282,8.659-0.38,4.402-4.254,7.671-8.659,7.282-9.042-0.781-18.295-2.174-27.502-4.14-11.092-2.367-21.888-5.492-32.181-9.291 2.164,13.092 6.279,25.623 12.051,37.253 6.729-2.803 13.675-5.317 20.779-7.512 8.834-2.73 17.753-4.901 26.507-6.454 4.358-0.771 8.503,2.13 9.274,6.48 0.771,4.351-2.13,8.503-6.48,9.274-8.104,1.437-16.374,3.451-24.578,5.987-5.964,1.842-11.804,3.924-17.477,6.223 4.232,6.453 9.008,12.535 14.267,18.172 8.239-6.501 16.935-12.654 26.009-18.389 10.288-6.502 20.868-12.32 31.447-17.292 4.001-1.88 8.764-0.161 10.643,3.837 1.879,3.999 0.161,8.764-3.837,10.643-9.981,4.69-19.975,10.187-29.704,16.336-7.946,5.021-15.58,10.375-22.841,16.009 14.384,12.134 31.377,21.326 50.063,26.518-1.364-4.359-2.101-8.996-2.101-13.798 0-21.579 14.654-40.102 35.635-45.043 4.302-1.01 8.608,1.653 9.621,5.953 1.013,4.301-1.652,8.608-5.953,9.621-13.72,3.231-23.303,15.349-23.303,29.469 0,16.693 13.582,30.274 30.276,30.274 16.693,0 30.274-13.581 30.274-30.274v-26.883l-24.854-32.182c-1.082-1.401-1.668-3.121-1.668-4.89v-13.83c0-4.418 3.582-8 8-8h53.045c4.418,0 8,3.582 8,8v13.831c0,1.77-0.587,3.489-1.669,4.89l-24.854,32.181v26.883c0,16.693 13.582,30.274 30.275,30.274s30.274-13.581 30.274-30.274c0-14.12-9.582-26.238-23.301-29.469-4.301-1.013-6.966-5.32-5.953-9.621 1.014-4.301 5.318-6.963 9.621-5.953 20.98,4.942 35.633,23.464 35.633,45.043 0,4.805-0.736,9.442-2.102,13.802 18.702-5.189 35.7-14.374 50.089-26.505-7.268-5.639-14.91-11-22.862-16.026-9.733-6.151-19.728-11.647-29.704-16.336-3.999-1.879-5.717-6.644-3.838-10.643s6.646-5.717 10.643-3.837c10.575,4.97 21.155,10.788 31.446,17.292 9.083,5.74 17.788,11.9 26.033,18.408 5.262-5.638 10.039-11.723 14.271-18.179-5.681-2.304-11.527-4.388-17.502-6.234-8.206-2.536-16.477-4.55-24.581-5.987-4.351-0.771-7.252-4.923-6.48-9.273 0.771-4.351 4.923-7.253 9.273-6.48 8.755,1.552 17.675,3.724 26.511,6.454 7.112,2.197 14.064,4.714 20.8,7.521 5.764-11.628 9.875-24.166 12.035-37.265-10.297,3.801-21.094,6.926-32.189,9.293-9.205,1.966-18.458,3.359-27.501,4.14-4.419,0.381-8.279-2.88-8.659-7.282s2.881-8.279 7.282-8.659c8.385-0.724 16.977-2.019 25.537-3.847 13.003-2.774 25.538-6.652 37.23-11.482 0.032-1.172 0.048-2.344 0.048-3.521zm-253.342-22.041v5.046c0,4.418 3.582,8 8,8s8-3.582 8-8v-5.046c0-4.418-3.582-8-8-8s-8,3.581-8,8zm245.038-158.431c-2.354-3.739-7.293-4.863-11.032-2.51-22.767,14.326-44.424,34.507-62.627,58.359-6.457,8.457-12.346,17.231-17.503,26.079-2.226,3.817-0.935,8.715 2.883,10.94 1.267,0.738 2.652,1.09 4.021,1.09 2.753,0 5.433-1.423 6.919-3.973 4.825-8.277 10.342-16.496 16.398-24.428 17.059-22.351 37.263-41.206 58.431-54.525 3.739-2.354 4.863-7.293 2.51-11.032zm-196.292,142.082c0,16.177-3.364,29.271-9.999,38.916-6.396,9.298-15.671,14.807-26.117,15.513-0.74,0.05-1.486,0.075-2.236,0.075-20.859,0-44.822-19.348-49.899-56.748-0.289-2.127 0.29-4.281 1.604-5.978 1.315-1.697 3.257-2.793 5.389-3.044l37.868-4.451c0.898-0.106 1.81-0.058 2.694,0.141l34.454,7.771c3.65,0.824 6.242,4.064 6.242,7.805zm-16.222,6.346l-26.658-6.013-27.997,3.291c5.668,23.019 20.823,35.708 33.683,34.84 11.818-0.798 19.59-12.92 20.972-32.118zm97.505,10.003v5.046c0,4.418 3.582,8 8,8s8-3.582 8-8v-5.046c0-4.418-3.582-8-8-8s-8,3.581-8,8z"/>
</svg>
