<?xml version='1.0' encoding='iso-8859-1'?>
<svg version="1.1" xmlns="http://www.w3.org/2000/svg" viewBox="0 0 414.282 414.282" xmlns:xlink="http://www.w3.org/1999/xlink" enable-background="new 0 0 414.282 414.282">
  <path fill="#fff" d="m157.394,151.768v5.046c0,4.418-3.582,8-8,8s-8-3.582-8-8v-5.046c0-4.418 3.582-8 8-8s8,3.582 8,8zm62.219-.32c1.531-4.028 3.411-7.786 5.585-11.23l-7.12-11.427c-6.991-11.217-10.555-11.541-10.938-11.541-0.384,0-3.946,0.324-10.938,11.542l-7.119,11.425c2.175,3.445 4.056,7.203 5.587,11.23 0.696,1.832 0.696,3.855 0,5.688-8.076,21.238-25.849,34.961-45.276,34.961-19.43,0-37.201-13.724-45.274-34.962-0.695-1.831-0.695-3.854 0.001-5.686 8.073-21.239 25.845-34.963 45.273-34.963 10.489,0 20.496,4.001 28.755,11.025l4.475-7.181c5.104-8.191 13.199-19.08 24.516-19.08 11.317,0 19.413,10.889 24.518,19.079l4.476,7.182c8.258-7.024 18.265-11.025 28.755-11.025 19.429,0 37.2,13.724 45.273,34.963 0.696,1.831 0.696,3.854 0,5.686-8.072,21.238-25.844,34.962-45.273,34.962-19.429,0-37.2-13.724-45.274-34.962-0.699-1.832-0.699-3.855-0.002-5.686zm16.138,2.843c6.055,13.343 17.234,21.805 29.136,21.805 11.901,0 23.081-8.462 29.135-21.805-6.055-13.343-17.234-21.806-29.135-21.806-11.9,2.84217e-14-23.08,8.462-29.136,21.806zm-57.219,0c-6.058-13.344-17.237-21.806-29.138-21.806s-23.08,8.463-29.135,21.806c6.054,13.343 17.233,21.805 29.135,21.805 11.9-0.001 23.081-8.463 29.138-21.805zm137.127,190.322c-23.066,14.31-48.558,23.729-75.766,27.996-1.688,0.265-3.247,1.063-4.448,2.277-8.228,8.316-17.735,15.447-28.308,21.235-10.572-5.788-20.08-12.919-28.306-21.235-1.201-1.215-2.76-2.013-4.447-2.277-27.216-4.27-52.71-13.688-75.773-27.996-3.752-2.33-8.686-1.173-11.015,2.581s-1.174,8.686 2.581,11.015c24.161,14.989 50.779,25.005 79.154,29.788 9.943,9.664 21.432,17.832 34.187,24.302 1.138,0.577 2.378,0.865 3.619,0.865 1.24,0 2.481-0.288 3.619-0.865 12.754-6.469 24.243-14.637 34.188-24.301 28.368-4.782 54.984-14.798 79.149-29.789 3.754-2.329 4.909-7.261 2.58-11.016s-7.26-4.909-11.014-2.58zm96.28-114.461l-11.484-11.483c1.916-2.438 3.013-5.24 3.013-8.455 0-4.106 0.003-4.822-32.676-37.402l6.087-89.267c0.618-9.069-0.545-18.211-3.232-26.73l7.275-21.063c1.442-4.177-0.773-8.731-4.949-10.174-4.179-1.442-8.731,0.774-10.174,4.95l-2.175,6.295c-1.146-1.566-2.36-3.073-3.636-4.51l7.037-20.606c1.429-4.182-0.804-8.729-4.984-10.156-4.181-1.429-8.729,0.803-10.156,4.984l-7.258,21.25c-17.104,5.453-32.518,18.961-40.938,36.148l-14.172,28.932c-2.716-2.664-4.926-4.841-6.097-6.012-20.298-20.297-47.388-31.476-76.28-31.476-28.892,0-55.981,11.179-76.279,31.476-1.268,1.269-3.712,3.674-7.189,7.083l-14.698-30.002c-8.418-17.188-23.833-30.696-40.938-36.149l-7.257-21.249c-1.427-4.183-5.978-6.415-10.155-4.985-4.182,1.428-6.414,5.975-4.985,10.155l7.037,20.607c-1.276,1.437-2.489,2.943-3.636,4.51l-2.175-6.295c-1.441-4.176-5.996-6.396-10.173-4.95-4.177,1.442-6.393,5.997-4.95,10.174l7.275,21.063c-2.688,8.52-3.853,17.659-3.234,26.73l6.191,90.78c-31.159,31.103-31.16,31.819-31.16,35.889 0,3.215 1.096,6.016 3.012,8.454l-11.483,11.482c-1.995,1.996-2.792,4.896-2.096,7.631 7.203,28.303 20.625,54.284 39.893,77.223 2.845,3.384 7.891,3.82 11.271,0.98 3.383-2.842 3.822-7.889 0.98-11.271-16.71-19.893-28.629-42.251-35.469-66.515l10.628-10.628c18.898,7.221 47.64,7.526 52.318,7.526 4.418,0 8-3.582 8-8s-3.582-8-8-8c-25.265,0-42.218-4.161-49.544-7.628-0.482-0.335-0.992-0.611-1.521-0.828 3.62-3.905 11.199-11.757 27.032-27.544 0.015-0.014 0.028-0.028 0.042-0.042 26.944-27.117 37.402-63.066 29.447-101.227-0.902-4.324-5.137-7.096-9.465-6.199-4.325,0.902-7.101,5.14-6.199,9.465 5.436,26.069 0.875,50.909-12.85,71.651l-5.066-74.288c-0.968-14.206 3.869-29.046 12.501-39.066 12.488,4.362 24.096,14.796 30.357,27.582l19.568,39.944c1.13,2.306 3.298,3.929 5.828,4.364 2.527,0.436 5.115-0.37 6.951-2.165 7.818-7.648 13.092-12.817 15.224-14.949 17.274-17.275 40.347-26.789 64.965-26.789 24.619,0 47.691,9.514 64.966,26.79 2.247,2.246 8.119,7.998 14.13,13.879 1.835,1.795 4.422,2.602 6.951,2.165 2.531-0.436 4.698-2.059 5.828-4.364l19.043-38.875c6.263-12.786 17.87-23.22 30.357-27.582 8.633,10.021 13.469,24.86 12.5,39.066l-4.972,72.915c-13.753-20.428-18.191-44.279-12.838-69.95 0.901-4.325-1.874-8.563-6.199-9.465-4.325-0.896-8.563,1.874-9.465,6.199-7.863,37.716 2.318,72.084 29.445,99.388 0.014,0.015 0.028,0.028 0.043,0.043 16.861,16.794 24.811,25.023 28.546,29.054-0.53,0.217-1.042,0.494-1.525,0.831-7.33,3.466-24.28,7.625-49.539,7.625-4.418,0-8,3.582-8,8s3.582,8 8,8c4.679,0 33.419-0.306 52.317-7.526l10.629,10.63c-6.84,24.256-18.762,46.613-35.476,66.513-2.842,3.384-2.402,8.43 0.98,11.271 1.5,1.259 3.325,1.874 5.142,1.874 2.281,0 4.548-0.971 6.13-2.854 19.272-22.946 32.696-48.927 39.9-77.221 0.7-2.735-0.097-5.635-2.092-7.631zm-7.607,145.603c-1.577,2.026-3.936,3.086-6.318,3.086-1.718,0-3.448-0.551-4.908-1.688l-119.777-93.237c-4.273,3.439-8.872,6.568-13.774,9.344-3.533,25.955-25.723,45.667-52.413,45.667-26.691,0-48.881-19.712-52.414-45.667-4.901-2.775-9.503-5.905-13.775-9.344l-119.777,93.237c-3.486,2.716-8.513,2.087-11.227-1.398-2.714-3.486-2.088-8.513 1.398-11.227l117.858-91.746c-3.704-4.136-7.025-8.55-9.938-13.197l-47.762,23.586c-3.96,1.957-8.759,0.331-10.715-3.631-1.957-3.961-0.331-8.759 3.631-10.715l47.521-23.468c-4.534-11.019-6.965-22.907-6.965-35.144 0-4.418 3.582-8 8-8h27.945c4.418,0 8,3.582 8,8s-3.582,8-8,8h-19.522c1.768,16.68 9.016,32.249 20.473,44.707l10.717-8.342c3.487-2.715 8.514-2.087 11.227,1.398 2.714,3.486 2.088,8.513-1.398,11.227l-8.425,6.559c0.208,0.153 0.416,0.305 0.626,0.456 0.22,0.104 0.435,0.22 0.647,0.347 11.723,6.973 30.763,7.634 43.873,1.983v-24.256l-23.594-23.414c-1.513-1.502-2.364-3.547-2.364-5.679v-10.374c0-4.418 3.582-8 8-8h51.916c4.418,0 8,3.582 8,8v10.375c0,2.132-0.852,4.177-2.365,5.679l-23.593,23.413v24.256c13.11,5.649 32.149,4.988 43.872-1.983 0.212-0.127 0.428-0.242 0.646-0.347 0.209-0.149 0.42-0.304 0.627-0.455l-8.426-6.56c-3.486-2.714-4.112-7.74-1.398-11.227 2.714-3.487 7.742-4.112 11.227-1.398l10.718,8.343c11.457-12.457 18.707-28.031 20.476-44.708h-19.524c-4.418,0-8-3.582-8-8s3.582-8 8-8h27.947c4.418,0 8,3.582 8,8 0,12.238-2.43,24.124-6.966,35.144l47.397,23.407c3.962,1.956 5.587,6.754 3.631,10.715-1.955,3.963-6.754,5.588-10.715,3.631l-47.639-23.525c-2.911,4.646-6.236,9.063-9.939,13.198l117.86,91.745c3.486,2.714 4.112,7.74 1.398,11.227zm-197.191-138.064l16.994-16.865h-33.987l16.993,16.865zm35.56,58.261c-12.257,1.26-25.163-0.56-35.56-5.466-10.395,4.906-23.298,6.728-35.561,5.466 4.334,15.639 18.652,26.975 35.561,26.975s31.226-11.337 35.56-26.975zm22.186-131.138c4.418,0 8-3.582 8-8v-5.046c0-4.418-3.582-8-8-8s-8,3.582-8,8v5.046c0,4.418 3.582,8 8,8z"/>
</svg>
